<?xml version="1.0" encoding="UTF-8"?>
<svg xmlns="http://www.w3.org/2000/svg" width="1536" height="1024" viewBox="0 0 1536 1024" role="img" aria-labelledby="title desc">
  <title id="title">入門書が死んでも温まるまで待つ</title>
  <desc id="desc">今日は、小さな表示を一枚まともに出すだけで、思ったよりずいぶん現実に引き戻された日だった。昼は I2C 液晶の相性合わせで、`lcd_profile` を 0 から 7 まで順番に試していた。番号を変える。反応を見る。だめならまた変える。いまどき何かを始める時には、賢い案内役が横にいて、次にどこを触るかまで教えてくれる。にもかかわらず、液晶のほうはその親切に少しも感動せず、ただ相性だけを要求してくる。こういう時、未来っぽい話より、地味な</desc>
  <defs>
    <linearGradient id="bg" x1="0%" y1="0%" x2="100%" y2="100%">
      <stop offset="0%" stop-color="#0a0714" />
      <stop offset="52%" stop-color="#281539" />
      <stop offset="100%" stop-color="#513057" />
    </linearGradient>
    <radialGradient id="glowA" cx="26%" cy="26%" r="54%">
      <stop offset="0%" stop-color="#9ce7ff" stop-opacity="0.22" />
      <stop offset="100%" stop-color="#9ce7ff" stop-opacity="0" />
    </radialGradient>
    <radialGradient id="glowB" cx="78%" cy="28%" r="48%">
      <stop offset="0%" stop-color="#ffb36d" stop-opacity="0.18" />
      <stop offset="100%" stop-color="#ffb36d" stop-opacity="0" />
    </radialGradient>
    <radialGradient id="glowC" cx="50%" cy="100%" r="56%">
      <stop offset="0%" stop-color="#ffe39b" stop-opacity="0.18" />
      <stop offset="100%" stop-color="#ffe39b" stop-opacity="0" />
    </radialGradient>
  </defs>
  <rect width="1536" height="1024" fill="url(#bg)" />
  <rect width="1536" height="1024" fill="url(#glowA)" />
  <rect width="1536" height="1024" fill="url(#glowB)" />
  <rect width="1536" height="1024" fill="url(#glowC)" />
  <rect x="58" y="58" width="1420" height="908" rx="40" fill="rgba(2, 6, 18, 0.28)" stroke="rgba(255,255,255,0.08)" />
  <g>
<line x1="170" y1="164" x2="1366" y2="164" stroke="rgba(255,255,255,0.22)" stroke-width="1" opacity="0.08" />
<line x1="170" y1="236" x2="1366" y2="236" stroke="rgba(255,255,255,0.22)" stroke-width="1" opacity="0.04" />
<line x1="170" y1="308" x2="1366" y2="308" stroke="rgba(255,255,255,0.22)" stroke-width="1" opacity="0.08" />
<line x1="170" y1="380" x2="1366" y2="380" stroke="rgba(255,255,255,0.22)" stroke-width="1" opacity="0.04" />
<line x1="170" y1="452" x2="1366" y2="452" stroke="rgba(255,255,255,0.22)" stroke-width="1" opacity="0.08" />
<line x1="170" y1="524" x2="1366" y2="524" stroke="rgba(255,255,255,0.22)" stroke-width="1" opacity="0.04" />
<line x1="170" y1="596" x2="1366" y2="596" stroke="rgba(255,255,255,0.22)" stroke-width="1" opacity="0.08" />
<line x1="170" y1="668" x2="1366" y2="668" stroke="rgba(255,255,255,0.22)" stroke-width="1" opacity="0.04" />
<line x1="170" y1="740" x2="1366" y2="740" stroke="rgba(255,255,255,0.22)" stroke-width="1" opacity="0.08" />
<line x1="170" y1="812" x2="1366" y2="812" stroke="rgba(255,255,255,0.22)" stroke-width="1" opacity="0.04" />
  </g>
  <g>
<rect x="200" y="214" width="1138" height="592" rx="38" fill="rgba(255,255,255,0.04)" opacity="1" stroke="#73c2ff" stroke-opacity="0.18" />
<rect x="280" y="492" width="404" height="224" rx="22" fill="rgba(255,255,255,0.06)" opacity="1" stroke="#ffe39b" stroke-opacity="0.14" />
<rect x="326" y="452" width="404" height="224" rx="22" fill="rgba(255,255,255,0.08)" opacity="1" stroke="#ffb36d" stroke-opacity="0.16" />
<rect x="830" y="278" width="330" height="440" rx="28" fill="rgba(9,16,28,0.74)" opacity="1" stroke="#9ce7ff" stroke-opacity="0.2" />
<rect x="874" y="330" width="242" height="192" rx="18" fill="rgba(120, 240, 255, 0.1)" opacity="1" stroke="#73c2ff" stroke-opacity="0.22" />
<rect x="908" y="566" width="172" height="28" rx="14" fill="#ffe39b" opacity="0.8" />
<rect x="908" y="608" width="140" height="24" rx="12" fill="#9ce7ff" opacity="0.76" />
<rect x="908" y="646" width="192" height="24" rx="12" fill="#ffb36d" opacity="0.7" />
<circle cx="992" cy="426" r="110" fill="#ffb36d" opacity="0.13" />
<circle cx="1016" cy="426" r="86" fill="#ffe39b" opacity="0.22" />
<line x1="484" y1="484" x2="484" y2="660" stroke="#ffe39b" stroke-width="2" opacity="0.42" />
<line x1="538" y1="484" x2="538" y2="660" stroke="#ffe39b" stroke-width="2" opacity="0.26" />
<path d="M 978 242 C 930 310 930 380 978 446" fill="none" stroke="#ffb36d" stroke-width="5" opacity="0.58" stroke-linecap="round" />
<path d="M 1036 244 C 990 322 992 394 1036 472" fill="none" stroke="#ffe39b" stroke-width="4" opacity="0.48" stroke-linecap="round" />
  </g>
  <g opacity="0.72">
    <text x="156" y="162" fill="rgba(255,255,255,0.7)" font-size="28" font-family="'Trebuchet MS', 'Yu Gothic', sans-serif" letter-spacing="8">2026-04-15</text>
    <text x="156" y="906" fill="rgba(255,255,255,0.88)" font-size="72" font-weight="700" font-family="'Trebuchet MS', 'Yu Gothic', sans-serif">入門書が死んでも温まるまで待つ</text>
    <text x="156" y="950" fill="rgba(255,255,255,0.54)" font-size="24" font-family="'Trebuchet MS', 'Yu Gothic', sans-serif">今日は、小さな表示を一枚まともに出すだけで、思ったよりずいぶん現実に引き戻された日だった。昼は I2C 液晶の相性合わせで、`lcd_profile` を 0 から 7 まで順番に試していた。番号を変える。反応を見る。だめならまた変える。いまどき何かを始める時には、賢い案内役が横にいて、次にどこを触るかまで教えてくれる。にもかかわらず、液晶のほうはその親切に少しも感動せず、ただ相性だけを要求してくる。こういう時、未来っぽい話より、地味な</text>
  </g>
</svg>
