<?xml version="1.0" encoding="UTF-8"?>
<svg xmlns="http://www.w3.org/2000/svg" width="1536" height="1024" viewBox="0 0 1536 1024" role="img" aria-labelledby="title desc">
  <title id="title">三千万と破滅のあいだ</title>
  <desc id="desc">家計簿を開いたら、流動資産が三千万を超えていた。数字はたいてい無表情だ。しかし桁がひとつ変わると、急に時間の重さを持つ。銀行口座や証券口座の奥に沈んでいた数年分の反復が、ひとつの塊になってこちらへ返ってくる。嬉しいかと聞かれれば、もちろん嬉しい。でも、それ以上に、鈍くて現実的な重みのほうが先に来た。 もちろん、一撃で勝ったわけではない。やったことは単純だ。入れる。持つ。下がってもすぐには消さない。また入れる。退屈で、誰の記憶にも残らない</desc>
  <defs>
    <linearGradient id="bg" x1="0%" y1="0%" x2="100%" y2="100%">
      <stop offset="0%" stop-color="#090910" />
      <stop offset="52%" stop-color="#1d2134" />
      <stop offset="100%" stop-color="#2e334c" />
    </linearGradient>
    <radialGradient id="glowA" cx="26%" cy="26%" r="54%">
      <stop offset="0%" stop-color="#c0d8ff" stop-opacity="0.22" />
      <stop offset="100%" stop-color="#c0d8ff" stop-opacity="0" />
    </radialGradient>
    <radialGradient id="glowB" cx="78%" cy="28%" r="48%">
      <stop offset="0%" stop-color="#ff8a6b" stop-opacity="0.18" />
      <stop offset="100%" stop-color="#ff8a6b" stop-opacity="0" />
    </radialGradient>
    <radialGradient id="glowC" cx="50%" cy="100%" r="56%">
      <stop offset="0%" stop-color="#ffd978" stop-opacity="0.18" />
      <stop offset="100%" stop-color="#ffd978" stop-opacity="0" />
    </radialGradient>
  </defs>
  <rect width="1536" height="1024" fill="url(#bg)" />
  <rect width="1536" height="1024" fill="url(#glowA)" />
  <rect width="1536" height="1024" fill="url(#glowB)" />
  <rect width="1536" height="1024" fill="url(#glowC)" />
  <rect x="58" y="58" width="1420" height="908" rx="40" fill="rgba(2, 6, 18, 0.28)" stroke="rgba(255,255,255,0.08)" />
  <g>
<line x1="170" y1="164" x2="1366" y2="164" stroke="rgba(255,255,255,0.22)" stroke-width="1" opacity="0.08" />
<line x1="170" y1="236" x2="1366" y2="236" stroke="rgba(255,255,255,0.22)" stroke-width="1" opacity="0.04" />
<line x1="170" y1="308" x2="1366" y2="308" stroke="rgba(255,255,255,0.22)" stroke-width="1" opacity="0.08" />
<line x1="170" y1="380" x2="1366" y2="380" stroke="rgba(255,255,255,0.22)" stroke-width="1" opacity="0.04" />
<line x1="170" y1="452" x2="1366" y2="452" stroke="rgba(255,255,255,0.22)" stroke-width="1" opacity="0.08" />
<line x1="170" y1="524" x2="1366" y2="524" stroke="rgba(255,255,255,0.22)" stroke-width="1" opacity="0.04" />
<line x1="170" y1="596" x2="1366" y2="596" stroke="rgba(255,255,255,0.22)" stroke-width="1" opacity="0.08" />
<line x1="170" y1="668" x2="1366" y2="668" stroke="rgba(255,255,255,0.22)" stroke-width="1" opacity="0.04" />
<line x1="170" y1="740" x2="1366" y2="740" stroke="rgba(255,255,255,0.22)" stroke-width="1" opacity="0.08" />
<line x1="170" y1="812" x2="1366" y2="812" stroke="rgba(255,255,255,0.22)" stroke-width="1" opacity="0.04" />
  </g>
  <g>
<rect x="196" y="188" width="1144" height="636" rx="40" fill="rgba(255,255,255,0.03)" opacity="1" stroke="#8eb7ff" stroke-opacity="0.12" />
<rect x="318" y="602" width="204" height="122" rx="18" fill="rgba(255,255,255,0.08)" opacity="1" stroke="#ffd978" stroke-opacity="0.16" />
<rect x="560" y="510" width="204" height="214" rx="18" fill="rgba(255,255,255,0.08)" opacity="1" stroke="#ffd978" stroke-opacity="0.18" />
<rect x="802" y="398" width="204" height="326" rx="18" fill="rgba(255,255,255,0.08)" opacity="1" stroke="#ffd978" stroke-opacity="0.22" />
<rect x="1044" y="330" width="150" height="394" rx="18" fill="rgba(255,255,255,0.08)" opacity="1" stroke="#ffd978" stroke-opacity="0.16" />
<circle cx="304" cy="286" r="86" fill="#ff8a6b" opacity="0.12" />
<circle cx="1190" cy="280" r="90" fill="#8eb7ff" opacity="0.1" />
<path d="M 1096 198 C 1160 234 1194 268 1230 338 C 1168 372 1130 420 1106 474" fill="none" stroke="#ff8a6b" stroke-width="5" opacity="0.54" stroke-linecap="round" />
<path d="M 1140 184 C 1194 224 1230 260 1260 326" fill="none" stroke="#ffd978" stroke-width="3" opacity="0.45" stroke-linecap="round" />
<line x1="300" y1="762" x2="1220" y2="762" stroke="#c0d8ff" stroke-width="1.6" opacity="0.3" />
<line x1="300" y1="790" x2="1220" y2="790" stroke="#8eb7ff" stroke-width="1" opacity="0.2" />
  </g>
  <g opacity="0.72">
    <text x="156" y="162" fill="rgba(255,255,255,0.7)" font-size="28" font-family="'Trebuchet MS', 'Yu Gothic', sans-serif" letter-spacing="8">2026-04-18</text>
    <text x="156" y="906" fill="rgba(255,255,255,0.88)" font-size="72" font-weight="700" font-family="'Trebuchet MS', 'Yu Gothic', sans-serif">三千万と破滅のあいだ</text>
    <text x="156" y="950" fill="rgba(255,255,255,0.54)" font-size="24" font-family="'Trebuchet MS', 'Yu Gothic', sans-serif">家計簿を開いたら、流動資産が三千万を超えていた。数字はたいてい無表情だ。しかし桁がひとつ変わると、急に時間の重さを持つ。銀行口座や証券口座の奥に沈んでいた数年分の反復が、ひとつの塊になってこちらへ返ってくる。嬉しいかと聞かれれば、もちろん嬉しい。でも、それ以上に、鈍くて現実的な重みのほうが先に来た。 もちろん、一撃で勝ったわけではない。やったことは単純だ。入れる。持つ。下がってもすぐには消さない。また入れる。退屈で、誰の記憶にも残らない</text>
  </g>
</svg>
