<svg xmlns="http://www.w3.org/2000/svg" width="1536" height="864" viewBox="0 0 1536 864" role="img" aria-label="Diary cover illustration: data cards, wheat, wind, and a receiving vessel">
  <defs>
    <linearGradient id="bg" x1="0" y1="0" x2="1" y2="1">
      <stop offset="0" stop-color="#07121d"/>
      <stop offset="0.46" stop-color="#102b35"/>
      <stop offset="1" stop-color="#253f47"/>
    </linearGradient>
    <radialGradient id="glow" cx="50%" cy="48%" r="58%">
      <stop offset="0" stop-color="#e2d18a" stop-opacity="0.34"/>
      <stop offset="0.44" stop-color="#66c5d5" stop-opacity="0.18"/>
      <stop offset="1" stop-color="#07121d" stop-opacity="0"/>
    </radialGradient>
    <linearGradient id="wheat" x1="0" y1="0" x2="0" y2="1">
      <stop offset="0" stop-color="#f3cf75"/>
      <stop offset="1" stop-color="#9f7d3f"/>
    </linearGradient>
    <linearGradient id="panel" x1="0" y1="0" x2="1" y2="1">
      <stop offset="0" stop-color="#d6eef2" stop-opacity="0.18"/>
      <stop offset="1" stop-color="#8ecbd3" stop-opacity="0.06"/>
    </linearGradient>
    <filter id="soft-shadow" x="-20%" y="-20%" width="140%" height="140%">
      <feDropShadow dx="0" dy="18" stdDeviation="24" flood-color="#000000" flood-opacity="0.26"/>
    </filter>
    <filter id="blur">
      <feGaussianBlur stdDeviation="18"/>
    </filter>
  </defs>

  <rect width="1536" height="864" fill="url(#bg)"/>
  <rect width="1536" height="864" fill="url(#glow)"/>
  <circle cx="310" cy="146" r="210" fill="#7bd3df" opacity="0.08" filter="url(#blur)"/>
  <circle cx="1190" cy="700" r="280" fill="#e0b766" opacity="0.08" filter="url(#blur)"/>

  <g opacity="0.23">
    <path d="M84 628 C300 540 430 620 612 524 C760 446 876 282 1088 342 C1250 388 1320 292 1460 220" fill="none" stroke="#bdeaf0" stroke-width="5" stroke-linecap="round"/>
    <path d="M114 704 C336 614 484 700 654 596 C804 504 940 374 1138 430 C1288 472 1356 402 1472 340" fill="none" stroke="#f3cf75" stroke-width="3" stroke-linecap="round"/>
    <path d="M54 482 C270 396 430 468 590 382 C760 290 920 178 1112 242 C1264 292 1346 248 1484 174" fill="none" stroke="#79d4df" stroke-width="3" stroke-linecap="round"/>
  </g>

  <g filter="url(#soft-shadow)">
    <rect x="170" y="126" width="1196" height="602" rx="40" fill="#071a26" opacity="0.64" stroke="#94d8df" stroke-opacity="0.18"/>
    <rect x="214" y="174" width="1108" height="506" rx="34" fill="#0f2934" opacity="0.72" stroke="#e7c878" stroke-opacity="0.13"/>
  </g>

  <g transform="translate(236 230)" opacity="0.96">
    <rect x="0" y="0" width="310" height="158" rx="24" fill="url(#panel)" stroke="#b8e8ee" stroke-opacity="0.23"/>
    <rect x="38" y="42" width="190" height="12" rx="6" fill="#f3cf75" opacity="0.66"/>
    <rect x="38" y="82" width="236" height="10" rx="5" fill="#91d9e1" opacity="0.55"/>
    <rect x="38" y="116" width="150" height="10" rx="5" fill="#91d9e1" opacity="0.35"/>
  </g>

  <g transform="translate(620 168)" opacity="0.98">
    <rect x="0" y="0" width="342" height="198" rx="26" fill="url(#panel)" stroke="#b8e8ee" stroke-opacity="0.24"/>
    <rect x="42" y="44" width="248" height="14" rx="7" fill="#91d9e1" opacity="0.72"/>
    <rect x="42" y="88" width="190" height="12" rx="6" fill="#f3cf75" opacity="0.62"/>
    <rect x="42" y="130" width="222" height="11" rx="5.5" fill="#91d9e1" opacity="0.42"/>
  </g>

  <g transform="translate(970 274)" opacity="0.9">
    <rect x="0" y="0" width="264" height="166" rx="24" fill="url(#panel)" stroke="#b8e8ee" stroke-opacity="0.2"/>
    <rect x="34" y="44" width="166" height="12" rx="6" fill="#91d9e1" opacity="0.66"/>
    <rect x="34" y="82" width="198" height="10" rx="5" fill="#f3cf75" opacity="0.46"/>
  </g>

  <g transform="translate(428 502)" opacity="0.78">
    <rect x="0" y="0" width="266" height="156" rx="24" fill="url(#panel)" stroke="#e7c878" stroke-opacity="0.16"/>
    <path d="M48 102 C84 54 138 40 212 58" fill="none" stroke="#e7c878" stroke-width="7" stroke-linecap="round" opacity="0.44"/>
    <path d="M66 72 C112 44 148 42 198 66" fill="none" stroke="#91d9e1" stroke-width="4" stroke-linecap="round" opacity="0.5"/>
  </g>

  <g transform="translate(788 492)" opacity="0.82">
    <rect x="0" y="0" width="274" height="166" rx="24" fill="url(#panel)" stroke="#e7c878" stroke-opacity="0.16"/>
    <ellipse cx="138" cy="92" rx="82" ry="28" fill="#e7c878" opacity="0.22"/>
    <path d="M62 92 C82 150 196 150 216 92" fill="none" stroke="#e7c878" stroke-width="9" stroke-linecap="round" opacity="0.48"/>
    <path d="M86 92 C100 124 178 124 192 92" fill="none" stroke="#91d9e1" stroke-width="4" stroke-linecap="round" opacity="0.46"/>
  </g>

  <g transform="translate(614 284)">
    <path d="M154 414 C150 316 156 224 154 104" fill="none" stroke="#c49a47" stroke-width="7" stroke-linecap="round"/>
    <path d="M132 414 C118 324 126 238 112 144" fill="none" stroke="#9f7d3f" stroke-width="4" stroke-linecap="round" opacity="0.8"/>
    <path d="M182 414 C200 326 192 242 210 154" fill="none" stroke="#9f7d3f" stroke-width="4" stroke-linecap="round" opacity="0.8"/>

    <g fill="url(#wheat)" opacity="0.96">
      <ellipse cx="154" cy="92" rx="16" ry="44" transform="rotate(-18 154 92)"/>
      <ellipse cx="126" cy="128" rx="13" ry="36" transform="rotate(-38 126 128)"/>
      <ellipse cx="184" cy="130" rx="13" ry="36" transform="rotate(36 184 130)"/>
      <ellipse cx="108" cy="174" rx="12" ry="34" transform="rotate(-45 108 174)"/>
      <ellipse cx="202" cy="178" rx="12" ry="34" transform="rotate(44 202 178)"/>
      <ellipse cx="96" cy="224" rx="10" ry="30" transform="rotate(-54 96 224)"/>
      <ellipse cx="218" cy="224" rx="10" ry="30" transform="rotate(52 218 224)"/>
    </g>
  </g>

  <g opacity="0.42">
    <circle cx="312" cy="622" r="5" fill="#f3cf75"/>
    <circle cx="350" cy="644" r="4" fill="#91d9e1"/>
    <circle cx="1178" cy="214" r="5" fill="#f3cf75"/>
    <circle cx="1220" cy="238" r="3.5" fill="#91d9e1"/>
    <circle cx="1096" cy="622" r="4" fill="#f3cf75"/>
  </g>
</svg>
