<?xml version="1.0" encoding="UTF-8"?>
<svg xmlns="http://www.w3.org/2000/svg" width="1536" height="1024" viewBox="0 0 1536 1024" role="img" aria-labelledby="title desc">
  <title id="title">爆発の手前で配線を信じる</title>
  <desc id="desc">マイコンをほとんど触ったことのない人間が、いきなり回路設計までまとめて面倒を見てもらおうとしている。今日はそんな無茶な始まり方をした。PC と AI が間に入れば、そのまま物の側まで一気に行けるのではないか、という雑な期待が先に立つ。ソフトウェアの側に長くいると、画面の向こうにあるものも、つい同じ手触りで扱える気がしてしまう。 だが、そこで急に現実が割り込んでくる。電子工作には物理の限界がある。基板の向こうにはちゃんと力学と電磁気学が待</desc>
  <defs>
    <linearGradient id="bg" x1="0%" y1="0%" x2="100%" y2="100%">
      <stop offset="0%" stop-color="#060a18" />
      <stop offset="52%" stop-color="#24113f" />
      <stop offset="100%" stop-color="#4b1c63" />
    </linearGradient>
    <radialGradient id="glowA" cx="26%" cy="26%" r="54%">
      <stop offset="0%" stop-color="#7cf5ff" stop-opacity="0.22" />
      <stop offset="100%" stop-color="#7cf5ff" stop-opacity="0" />
    </radialGradient>
    <radialGradient id="glowB" cx="78%" cy="28%" r="48%">
      <stop offset="0%" stop-color="#ff7f6a" stop-opacity="0.18" />
      <stop offset="100%" stop-color="#ff7f6a" stop-opacity="0" />
    </radialGradient>
    <radialGradient id="glowC" cx="50%" cy="100%" r="56%">
      <stop offset="0%" stop-color="#ffd280" stop-opacity="0.18" />
      <stop offset="100%" stop-color="#ffd280" stop-opacity="0" />
    </radialGradient>
  </defs>
  <rect width="1536" height="1024" fill="url(#bg)" />
  <rect width="1536" height="1024" fill="url(#glowA)" />
  <rect width="1536" height="1024" fill="url(#glowB)" />
  <rect width="1536" height="1024" fill="url(#glowC)" />
  <rect x="58" y="58" width="1420" height="908" rx="40" fill="rgba(2, 6, 18, 0.28)" stroke="rgba(255,255,255,0.08)" />
  <g>
<line x1="170" y1="164" x2="1366" y2="164" stroke="rgba(255,255,255,0.22)" stroke-width="1" opacity="0.08" />
<line x1="170" y1="236" x2="1366" y2="236" stroke="rgba(255,255,255,0.22)" stroke-width="1" opacity="0.04" />
<line x1="170" y1="308" x2="1366" y2="308" stroke="rgba(255,255,255,0.22)" stroke-width="1" opacity="0.08" />
<line x1="170" y1="380" x2="1366" y2="380" stroke="rgba(255,255,255,0.22)" stroke-width="1" opacity="0.04" />
<line x1="170" y1="452" x2="1366" y2="452" stroke="rgba(255,255,255,0.22)" stroke-width="1" opacity="0.08" />
<line x1="170" y1="524" x2="1366" y2="524" stroke="rgba(255,255,255,0.22)" stroke-width="1" opacity="0.04" />
<line x1="170" y1="596" x2="1366" y2="596" stroke="rgba(255,255,255,0.22)" stroke-width="1" opacity="0.08" />
<line x1="170" y1="668" x2="1366" y2="668" stroke="rgba(255,255,255,0.22)" stroke-width="1" opacity="0.04" />
<line x1="170" y1="740" x2="1366" y2="740" stroke="rgba(255,255,255,0.22)" stroke-width="1" opacity="0.08" />
<line x1="170" y1="812" x2="1366" y2="812" stroke="rgba(255,255,255,0.22)" stroke-width="1" opacity="0.04" />
  </g>
  <g>
<rect x="130" y="180" width="1276" height="664" rx="42" fill="rgba(4, 11, 22, 0.34)" opacity="1" stroke="#3bb7ff" stroke-opacity="0.22" />
<path d="M 220 620 C 420 500 540 700 750 560 S 1040 360 1300 510" fill="none" stroke="#7cf5ff" stroke-width="10" opacity="0.75" stroke-linecap="round" />
<path d="M 210 420 C 430 310 540 530 760 420 S 1100 190 1320 330" fill="none" stroke="#3bb7ff" stroke-width="7" opacity="0.7" stroke-linecap="round" />
<path d="M 260 760 C 470 640 680 740 850 650 S 1150 520 1280 610" fill="none" stroke="#ff7f6a" stroke-width="5" opacity="0.7" stroke-linecap="round" />
<circle cx="250" cy="620" r="22" fill="#ffd280" opacity="0.8" />
<circle cx="744" cy="562" r="18" fill="#7cf5ff" opacity="0.88" />
<circle cx="1294" cy="507" r="20" fill="#ff7f6a" opacity="0.86" />
<circle cx="214" cy="420" r="16" fill="#3bb7ff" opacity="0.85" />
<circle cx="764" cy="421" r="14" fill="#ffd280" opacity="0.75" />
<polygon points="1160,228 1200,196 1238,232 1212,278 1166,268" fill="#ff7f6a" opacity="0.22" />
<polygon points="1110,272 1144,240 1186,278 1160,316 1118,304" fill="#ffd280" opacity="0.18" />
<polygon points="1060,232 1096,202 1132,236 1114,274 1072,268" fill="#ffd7eb" opacity="0.14" />
<rect x="408" y="316" width="220" height="132" rx="16" fill="rgba(255,255,255,0.06)" opacity="1" stroke="#ffd280" stroke-opacity="0.2" />
<rect x="448" y="346" width="22" height="72" rx="8" fill="#ffd280" opacity="0.8" />
<rect x="488" y="334" width="22" height="84" rx="8" fill="#7cf5ff" opacity="0.72" />
<rect x="528" y="356" width="22" height="62" rx="8" fill="#ff7f6a" opacity="0.76" />
  </g>
  <g opacity="0.72">
    <text x="156" y="162" fill="rgba(255,255,255,0.7)" font-size="28" font-family="'Trebuchet MS', 'Yu Gothic', sans-serif" letter-spacing="8">2026-04-13</text>
    <text x="156" y="906" fill="rgba(255,255,255,0.88)" font-size="72" font-weight="700" font-family="'Trebuchet MS', 'Yu Gothic', sans-serif">爆発の手前で配線を信じる</text>
    <text x="156" y="950" fill="rgba(255,255,255,0.54)" font-size="24" font-family="'Trebuchet MS', 'Yu Gothic', sans-serif">マイコンをほとんど触ったことのない人間が、いきなり回路設計までまとめて面倒を見てもらおうとしている。今日はそんな無茶な始まり方をした。PC と AI が間に入れば、そのまま物の側まで一気に行けるのではないか、という雑な期待が先に立つ。ソフトウェアの側に長くいると、画面の向こうにあるものも、つい同じ手触りで扱える気がしてしまう。 だが、そこで急に現実が割り込んでくる。電子工作には物理の限界がある。基板の向こうにはちゃんと力学と電磁気学が待</text>
  </g>
</svg>
