<?xml version="1.0" encoding="UTF-8"?>
<svg xmlns="http://www.w3.org/2000/svg" width="1536" height="1024" viewBox="0 0 1536 1024" role="img" aria-labelledby="title desc">
  <title id="title">藤沢のシェーダー</title>
  <desc id="desc">藤沢駅に降りると、海の近くの街特有の湿り気がある。そこからサンダースネイクへ向かうだけで、日常の回路が少し太くなる。ライブハウスという場所は、入口をくぐる前から身体に低音を予告してくる。 カナイをやっている、という言葉には現場の匂いがある。説明より先に、そこに人がいて、音があり、照明がある。ステージは理屈ではなく、床の振動から始まる。 その場に、Spout、DirectX、GLSL のことを考えながら立つ。技術語は冷たいが、現場へ持ち込</desc>
  <defs>
    <linearGradient id="bg" x1="0%" y1="0%" x2="100%" y2="100%">
      <stop offset="0%" stop-color="#09111f" />
      <stop offset="52%" stop-color="#17304c" />
      <stop offset="100%" stop-color="#275e7c" />
    </linearGradient>
    <radialGradient id="glowA" cx="26%" cy="26%" r="54%">
      <stop offset="0%" stop-color="#9ceeff" stop-opacity="0.22" />
      <stop offset="100%" stop-color="#9ceeff" stop-opacity="0" />
    </radialGradient>
    <radialGradient id="glowB" cx="78%" cy="28%" r="48%">
      <stop offset="0%" stop-color="#ffd1a0" stop-opacity="0.18" />
      <stop offset="100%" stop-color="#ffd1a0" stop-opacity="0" />
    </radialGradient>
    <radialGradient id="glowC" cx="50%" cy="100%" r="56%">
      <stop offset="0%" stop-color="#fff0b2" stop-opacity="0.18" />
      <stop offset="100%" stop-color="#fff0b2" stop-opacity="0" />
    </radialGradient>
  </defs>
  <rect width="1536" height="1024" fill="url(#bg)" />
  <rect width="1536" height="1024" fill="url(#glowA)" />
  <rect width="1536" height="1024" fill="url(#glowB)" />
  <rect width="1536" height="1024" fill="url(#glowC)" />
  <rect x="58" y="58" width="1420" height="908" rx="40" fill="rgba(2, 6, 18, 0.28)" stroke="rgba(255,255,255,0.08)" />
  <g>
<line x1="170" y1="164" x2="1366" y2="164" stroke="rgba(255,255,255,0.22)" stroke-width="1" opacity="0.08" />
<line x1="170" y1="236" x2="1366" y2="236" stroke="rgba(255,255,255,0.22)" stroke-width="1" opacity="0.04" />
<line x1="170" y1="308" x2="1366" y2="308" stroke="rgba(255,255,255,0.22)" stroke-width="1" opacity="0.08" />
<line x1="170" y1="380" x2="1366" y2="380" stroke="rgba(255,255,255,0.22)" stroke-width="1" opacity="0.04" />
<line x1="170" y1="452" x2="1366" y2="452" stroke="rgba(255,255,255,0.22)" stroke-width="1" opacity="0.08" />
<line x1="170" y1="524" x2="1366" y2="524" stroke="rgba(255,255,255,0.22)" stroke-width="1" opacity="0.04" />
<line x1="170" y1="596" x2="1366" y2="596" stroke="rgba(255,255,255,0.22)" stroke-width="1" opacity="0.08" />
<line x1="170" y1="668" x2="1366" y2="668" stroke="rgba(255,255,255,0.22)" stroke-width="1" opacity="0.04" />
<line x1="170" y1="740" x2="1366" y2="740" stroke="rgba(255,255,255,0.22)" stroke-width="1" opacity="0.08" />
<line x1="170" y1="812" x2="1366" y2="812" stroke="rgba(255,255,255,0.22)" stroke-width="1" opacity="0.04" />
  </g>
  <g>
<rect x="248" y="172" width="1040" height="612" rx="36" fill="rgba(255,255,255,0.04)" opacity="1" stroke="#77cbff" stroke-opacity="0.22" />
<rect x="320" y="214" width="896" height="456" rx="30" fill="rgba(10,18,26,0.7)" opacity="1" stroke="#9ceeff" stroke-opacity="0.18" />
<rect x="356" y="250" width="824" height="384" rx="26" fill="rgba(116, 215, 255, 0.08)" opacity="1" />
<polygon points="536,610 1000,610 906,402 640,402" fill="#ffd1a0" opacity="0.14" />
<circle cx="768" cy="398" r="110" fill="#fff0b2" opacity="0.18" />
<path d="M 356 634 C 514 560 628 534 768 530 S 1026 558 1180 634" fill="none" stroke="#9ceeff" stroke-width="3" opacity="0.55"  />
<path d="M 430 692 C 560 612 662 588 768 584 S 972 616 1106 696" fill="none" stroke="#77cbff" stroke-width="2" opacity="0.5"  />
<circle cx="522" cy="772" r="46" fill="rgba(255,255,255,0.08)" opacity="1" />
<circle cx="664" cy="804" r="60" fill="rgba(255,255,255,0.08)" opacity="1" />
<circle cx="850" cy="810" r="58" fill="rgba(255,255,255,0.08)" opacity="1" />
<circle cx="1016" cy="776" r="44" fill="rgba(255,255,255,0.08)" opacity="1" />
<line x1="428" y1="300" x2="1110" y2="300" stroke="#fff0b2" stroke-width="1.4" opacity="0.5" />
<line x1="428" y1="360" x2="1110" y2="360" stroke="#fff0b2" stroke-width="1.4" opacity="0.4" />
<line x1="428" y1="420" x2="1110" y2="420" stroke="#fff0b2" stroke-width="1.4" opacity="0.35" />
  </g>
  <g opacity="0.72">
    <text x="156" y="162" fill="rgba(255,255,255,0.7)" font-size="28" font-family="'Trebuchet MS', 'Yu Gothic', sans-serif" letter-spacing="8">2026-05-16</text>
    <text x="156" y="906" fill="rgba(255,255,255,0.88)" font-size="72" font-weight="700" font-family="'Trebuchet MS', 'Yu Gothic', sans-serif">藤沢のシェーダー</text>
    <text x="156" y="950" fill="rgba(255,255,255,0.54)" font-size="24" font-family="'Trebuchet MS', 'Yu Gothic', sans-serif">藤沢駅に降りると、海の近くの街特有の湿り気がある。そこからサンダースネイクへ向かうだけで、日常の回路が少し太くなる。ライブハウスという場所は、入口をくぐる前から身体に低音を予告してくる。 カナイをやっている、という言葉には現場の匂いがある。説明より先に、そこに人がいて、音があり、照明がある。ステージは理屈ではなく、床の振動から始まる。 その場に、Spout、DirectX、GLSL のことを考えながら立つ。技術語は冷たいが、現場へ持ち込</text>
  </g>
</svg>
