<?xml version="1.0" encoding="UTF-8"?>
<svg xmlns="http://www.w3.org/2000/svg" width="1536" height="1024" viewBox="0 0 1536 1024" role="img" aria-labelledby="title desc">
  <title id="title">科目名にまだ朝を足していく</title>
  <desc id="desc">乾いた講義名が並んでいるだけの一覧に、ひとつずつ夢の入口を付けていく夜だった。情報セキュリティも、データサイエンスも、法学も、心理学も、ただの科目名のままでは机の上に平たく並ぶだけだ。そこへ、どんな場所を通って、どんな気分で入口へ立たせるのかを足していくと、授業は急に、人が入っていける幅を持ちはじめる。 面白かったのは、その作業が明らかに量産でもあったことだ。ファイルは次々に増えるし、一覧は長くなる。いったん手つきが決まれば、次の授業へ</desc>
  <defs>
    <linearGradient id="bg" x1="0%" y1="0%" x2="100%" y2="100%">
      <stop offset="0%" stop-color="#06101b" />
      <stop offset="52%" stop-color="#12354d" />
      <stop offset="100%" stop-color="#275d74" />
    </linearGradient>
    <radialGradient id="glowA" cx="26%" cy="26%" r="54%">
      <stop offset="0%" stop-color="#b8f3ff" stop-opacity="0.22" />
      <stop offset="100%" stop-color="#b8f3ff" stop-opacity="0" />
    </radialGradient>
    <radialGradient id="glowB" cx="78%" cy="28%" r="48%">
      <stop offset="0%" stop-color="#ffc785" stop-opacity="0.18" />
      <stop offset="100%" stop-color="#ffc785" stop-opacity="0" />
    </radialGradient>
    <radialGradient id="glowC" cx="50%" cy="100%" r="56%">
      <stop offset="0%" stop-color="#fff0b0" stop-opacity="0.18" />
      <stop offset="100%" stop-color="#fff0b0" stop-opacity="0" />
    </radialGradient>
  </defs>
  <rect width="1536" height="1024" fill="url(#bg)" />
  <rect width="1536" height="1024" fill="url(#glowA)" />
  <rect width="1536" height="1024" fill="url(#glowB)" />
  <rect width="1536" height="1024" fill="url(#glowC)" />
  <rect x="58" y="58" width="1420" height="908" rx="40" fill="rgba(2, 6, 18, 0.28)" stroke="rgba(255,255,255,0.08)" />
  <g>
<line x1="170" y1="164" x2="1366" y2="164" stroke="rgba(255,255,255,0.22)" stroke-width="1" opacity="0.08" />
<line x1="170" y1="236" x2="1366" y2="236" stroke="rgba(255,255,255,0.22)" stroke-width="1" opacity="0.04" />
<line x1="170" y1="308" x2="1366" y2="308" stroke="rgba(255,255,255,0.22)" stroke-width="1" opacity="0.08" />
<line x1="170" y1="380" x2="1366" y2="380" stroke="rgba(255,255,255,0.22)" stroke-width="1" opacity="0.04" />
<line x1="170" y1="452" x2="1366" y2="452" stroke="rgba(255,255,255,0.22)" stroke-width="1" opacity="0.08" />
<line x1="170" y1="524" x2="1366" y2="524" stroke="rgba(255,255,255,0.22)" stroke-width="1" opacity="0.04" />
<line x1="170" y1="596" x2="1366" y2="596" stroke="rgba(255,255,255,0.22)" stroke-width="1" opacity="0.08" />
<line x1="170" y1="668" x2="1366" y2="668" stroke="rgba(255,255,255,0.22)" stroke-width="1" opacity="0.04" />
<line x1="170" y1="740" x2="1366" y2="740" stroke="rgba(255,255,255,0.22)" stroke-width="1" opacity="0.08" />
<line x1="170" y1="812" x2="1366" y2="812" stroke="rgba(255,255,255,0.22)" stroke-width="1" opacity="0.04" />
  </g>
  <g>
<rect x="202" y="166" width="1132" height="654" rx="40" fill="rgba(255,255,255,0.03)" opacity="1" stroke="#7fe7d2" stroke-opacity="0.16" />
<polygon points="768,126 1108,768 428,768" fill="rgba(255, 219, 142, 0.14)" opacity="1" />
<rect x="286" y="310" width="290" height="180" rx="22" fill="rgba(255,255,255,0.08)" opacity="1" stroke="#fff0b0" stroke-opacity="0.16" />
<rect x="610" y="242" width="320" height="208" rx="22" fill="rgba(255,255,255,0.08)" opacity="1" stroke="#b8f3ff" stroke-opacity="0.16" />
<rect x="930" y="376" width="248" height="168" rx="22" fill="rgba(255,255,255,0.08)" opacity="1" stroke="#7fe7d2" stroke-opacity="0.14" />
<rect x="428" y="520" width="260" height="170" rx="22" fill="rgba(255,255,255,0.08)" opacity="1" stroke="#ffc785" stroke-opacity="0.14" />
<rect x="744" y="520" width="252" height="170" rx="22" fill="rgba(255,255,255,0.08)" opacity="1" stroke="#fff0b0" stroke-opacity="0.12" />
<line x1="320" y1="356" x2="516" y2="356" stroke="#fff0b0" stroke-width="10" opacity="0.42" />
<line x1="320" y1="394" x2="486" y2="394" stroke="#fff0b0" stroke-width="10" opacity="0.3" />
<line x1="648" y1="292" x2="884" y2="292" stroke="#b8f3ff" stroke-width="12" opacity="0.46" />
<line x1="648" y1="338" x2="840" y2="338" stroke="#b8f3ff" stroke-width="10" opacity="0.3" />
<line x1="952" y1="414" x2="1122" y2="414" stroke="#7fe7d2" stroke-width="10" opacity="0.32" />
<line x1="952" y1="452" x2="1088" y2="452" stroke="#7fe7d2" stroke-width="10" opacity="0.25" />
  </g>
  <g opacity="0.72">
    <text x="156" y="162" fill="rgba(255,255,255,0.7)" font-size="28" font-family="'Trebuchet MS', 'Yu Gothic', sans-serif" letter-spacing="8">2026-04-17</text>
    <text x="156" y="906" fill="rgba(255,255,255,0.88)" font-size="72" font-weight="700" font-family="'Trebuchet MS', 'Yu Gothic', sans-serif">科目名にまだ朝を足していく</text>
    <text x="156" y="950" fill="rgba(255,255,255,0.54)" font-size="24" font-family="'Trebuchet MS', 'Yu Gothic', sans-serif">乾いた講義名が並んでいるだけの一覧に、ひとつずつ夢の入口を付けていく夜だった。情報セキュリティも、データサイエンスも、法学も、心理学も、ただの科目名のままでは机の上に平たく並ぶだけだ。そこへ、どんな場所を通って、どんな気分で入口へ立たせるのかを足していくと、授業は急に、人が入っていける幅を持ちはじめる。 面白かったのは、その作業が明らかに量産でもあったことだ。ファイルは次々に増えるし、一覧は長くなる。いったん手つきが決まれば、次の授業へ</text>
  </g>
</svg>
