<svg xmlns="http://www.w3.org/2000/svg" width="88" height="31" viewBox="0 0 88 31">
  <rect width="88" height="31" fill="#081026" />
  <rect x="1" y="1" width="86" height="29" fill="#16243f" stroke="#8be8ff" />
  <circle cx="15" cy="15" r="9" fill="#0d1324" stroke="#f4f7ff" />
  <path d="M15 10.2c-2.8 0-5.1 2.2-5.1 5 0 2.2 1.4 4.1 3.4 4.7v-1.7c-1.4.3-1.7-.6-1.7-.6-.2-.6-.6-.8-.6-.8-.5-.4 0-.4 0-.4.5 0 .8.6.8.6.5.8 1.2.6 1.5.5.1-.4.2-.6.4-.8-1.1-.1-2.2-.6-2.2-2.5 0-.5.2-1 .6-1.4 0-.1-.2-.6.1-1.3 0 0 .5-.2 1.6.5.5-.1 1-.2 1.5-.2.5 0 1 .1 1.5.2 1.1-.7 1.6-.5 1.6-.5.3.7.1 1.2.1 1.3.4.4.6.9.6 1.4 0 1.9-1.1 2.4-2.2 2.5.2.2.4.5.4 1v1.7c2-.6 3.4-2.5 3.4-4.7 0-2.8-2.3-5-5.1-5z" fill="#fff" />
  <text x="30" y="19.2" font-family="Verdana, sans-serif" font-size="10" fill="#f7f4ff">GitHub</text>
</svg>
